<svg xmlns="http://www.w3.org/2000/svg" width="430" height="430" style="width:100%;height:100%;transform:translate3d(0,0,0);content-visibility:visible" viewBox="0 0 430 430"><defs><clipPath id="a"><path d="M0 0h430v430H0z"/></clipPath><clipPath id="b"><path d="M0 0h430v430H0z"/></clipPath></defs><g clip-path="url(#a)"><g clip-path="url(#b)" style="display:block"><path fill="none" stroke="#F24C00" stroke-linecap="round" stroke-linejoin="round" stroke-width="7" d="M1.378-115.522c0-46.174 43.13-49.401 69.241-35.036 18.863 10.377 29.596 35.036 54.782 35.036" class="secondary" style="display:block" transform="translate(215.151 215.818)"/><path fill="#3A3347" d="M22.833-110.438v-10.589c0-7.935-6.424-14.36-14.348-14.36H-8.49c-7.924 0-14.349 6.425-14.349 14.36v10.591c-57.553 10.72-101.127 61.197-101.127 121.858 0 68.464 55.502 123.965 123.966 123.965S123.966 79.886 123.966 11.422c0-60.663-43.577-111.142-101.133-121.86z" class="primary" style="display:block" transform="translate(215 236.299)"/><g opacity=".5" style="mix-blend-mode:multiply;display:block"><path fill="#3A3347" d="M-41.55 11.422c0-60.661 43.574-111.138 101.127-121.858v-10.591c0-6.121 3.829-11.329 9.214-13.397a14.277 14.277 0 0 0-5.134-.963H46.682c-7.924 0-14.349 6.425-14.349 14.36v10.591C-25.22-99.716-68.794-49.239-68.794 11.422c0 68.464 55.502 123.965 123.966 123.965 4.604 0 9.148-.259 13.622-.748C6.74 127.855-41.55 75.282-41.55 11.422z" class="primary" opacity="1" style="mix-blend-mode:multiply" transform="translate(159.828 236.299)"/></g><g opacity=".5" style="mix-blend-mode:multiply;display:block"><path fill="#3A3347" d="M-46.693 35.429a3.5 3.5 0 1 1 0-7c10.963 0 21.719-1.82 31.969-5.411 26.694-9.35 47.891-29.84 58.155-56.216a3.5 3.5 0 1 1 6.523 2.539C38.947-2.375 16.217 19.599-12.409 29.626c-10.996 3.851-22.531 5.803-34.284 5.803z" class="primary" opacity="1" style="mix-blend-mode:multiply" transform="translate(261.636 315.963)"/></g><g fill="none" style="display:none"><path class="tertiary" style="mix-blend-mode:soft-light"/><path class="tertiary" style="mix-blend-mode:soft-light"/></g><g fill="none" style="display:none"><path class="tertiary" style="mix-blend-mode:soft-light"/><path class="tertiary" style="mix-blend-mode:soft-light"/></g><g fill="none" style="display:none"><path class="tertiary" style="mix-blend-mode:soft-light"/><path class="tertiary" style="mix-blend-mode:soft-light"/></g><g fill="none" style="display:none"><path class="tertiary" style="mix-blend-mode:soft-light"/><path class="tertiary" style="mix-blend-mode:soft-light"/></g><g fill="none" style="display:none"><path class="tertiary" style="mix-blend-mode:soft-light"/><path class="tertiary" style="mix-blend-mode:soft-light"/></g><g fill="none" style="display:none"><path class="tertiary" style="mix-blend-mode:soft-light"/><path class="tertiary" style="mix-blend-mode:soft-light"/></g><g fill="none" style="display:none"><path class="tertiary" style="mix-blend-mode:soft-light"/><path class="tertiary" style="mix-blend-mode:soft-light"/></g><g fill="none" style="display:none"><path class="tertiary" style="mix-blend-mode:soft-light"/><path class="tertiary" style="mix-blend-mode:soft-light"/></g><g fill="none" style="display:none"><path class="tertiary" style="mix-blend-mode:soft-light"/><path class="tertiary" style="mix-blend-mode:soft-light"/></g><g fill="none" style="display:none"><path class="tertiary" style="mix-blend-mode:soft-light"/><path class="tertiary" style="mix-blend-mode:soft-light"/></g><g fill="none" style="display:none"><path class="tertiary" style="mix-blend-mode:soft-light"/><path class="tertiary" style="mix-blend-mode:soft-light"/></g><g fill="none" style="display:none"><path class="tertiary" style="mix-blend-mode:soft-light"/><path class="tertiary" style="mix-blend-mode:soft-light"/></g><g fill="none" style="display:none"><path class="tertiary" style="mix-blend-mode:soft-light"/><path class="tertiary" style="mix-blend-mode:soft-light"/></g><g fill="none" style="display:none"><path class="tertiary" style="mix-blend-mode:soft-light"/><path class="tertiary" style="mix-blend-mode:soft-light"/></g></g></g></svg>