<svg xmlns="http://www.w3.org/2000/svg" viewBox="0 0 60 75" x="0px" y="0px"><g data-name="Layer 1"><path fill="#708090" d="M38,25.31152v-12.438A4.00031,4.00031,0,0,0,37,5h-.10242l1.06433-3.7251A1.00009,1.00009,0,0,0,37,0H25a1.00009,1.00009,0,0,0-.96191,1.2749L25.10242,5H25a4.00031,4.00031,0,0,0-1,7.87354V25.312A17.72028,17.72028,0,0,0,13,42a18,18,0,0,0,36,0A17.71709,17.71709,0,0,0,38,25.31152ZM35.67383,2,34.24609,7H27.75391L26.32617,2Zm-10.335,24.94092A.99985.99985,0,0,0,26,26V12a.99974.99974,0,0,0-1-1,2,2,0,0,1,0-4h.67383l.36426,1.2749A1.00094,1.00094,0,0,0,27,9h8a1.00094,1.00094,0,0,0,.96191-.7251L36.32617,7H37a2,2,0,0,1,0,4,.99974.99974,0,0,0-1,1V26a.99939.99939,0,0,0,.66211.94092,15.42565,15.42565,0,0,1,5.92212,3.83386c-6.81989-.45886-9.72546.92352-12.53442,2.27161-2.97894,1.43079-5.81293,2.78088-13.58069,2.09332A15.42909,15.42909,0,0,1,25.33887,26.94092ZM31,58A16.01833,16.01833,0,0,1,15,42a16.80777,16.80777,0,0,1,.7276-4.92316c1.71338.16754,3.22894.24786,4.56146.24786a21.105,21.105,0,0,0,10.627-2.4751c2.93726-1.41,5.73254-2.738,13.39642-1.916A16.31383,16.31383,0,0,1,47,42,16.01833,16.01833,0,0,1,31,58Z"/><path fill="#708090" d="M44.24609,36.71631a.99965.99965,0,1,0-1.918.56445A16.74741,16.74741,0,0,1,43,42a16.11089,16.11089,0,0,1-.44531,3.76514.99955.99955,0,1,0,1.94336.46875A18.05449,18.05449,0,0,0,45,42,18.72259,18.72259,0,0,0,44.24609,36.71631Z"/>
</g></svg>