<?xml version="1.0" standalone="no"?>
<!DOCTYPE svg PUBLIC "-//W3C//DTD SVG 20010904//EN"
 "http://www.w3.org/TR/2001/REC-SVG-20010904/DTD/svg10.dtd">
<svg version="1.0" xmlns="http://www.w3.org/2000/svg"
 width="200.000000pt" height="200.000000pt" viewBox="0 0 200.000000 200.000000"
 preserveAspectRatio="xMidYMid meet">

<g transform="translate(0.000000,200.000000) scale(0.100000,-0.100000)"
fill="#1111e1" stroke="none">
<path fill="#1111e1" d="M412 1587 l-242 -242 0 -345 0 -345 243 -243 242 -242 345 0 345 0
243 243 242 242 0 345 0 345 -243 243 -242 242 -345 0 -345 0 -243 -243z m894
196 c-4 -10 -24 -60 -44 -110 l-37 -93 -225 0 -225 0 -37 93 c-20 50 -40 100
-44 110 -6 16 13 17 306 17 293 0 312 -1 306 -17z m-597 -117 l42 -100 -158
-158 -159 -159 -69 30 c-39 16 -88 36 -110 45 l-39 17 219 219 c121 121 222
216 226 212 3 -4 25 -52 48 -106z m1063 -327 c-4 -3 -52 -25 -106 -48 l-100
-42 -158 158 -159 159 30 69 c16 39 36 88 45 110 l17 39 219 -219 c121 -121
216 -222 212 -226z m-385 49 l163 -163 0 -225 0 -225 -163 -163 -162 -162
-225 0 -225 0 -162 162 -163 163 0 225 0 225 162 162 163 163 225 0 225 0 162
-162z m-1060 -126 l93 -37 0 -225 0 -225 -93 -37 c-50 -21 -100 -40 -109 -44
-17 -6 -18 13 -18 306 0 293 1 312 18 306 9 -4 59 -24 109 -44z m1473 -263 c0
-292 -1 -311 -17 -305 -10 4 -60 23 -110 44 l-93 37 0 225 0 225 98 41 c53 23
103 42 110 43 9 1 12 -67 12 -310z m-1207 -407 l157 -158 -41 -99 c-23 -55
-44 -103 -48 -107 -4 -4 -105 91 -226 212 -186 186 -216 220 -199 226 10 5 57
25 104 45 47 21 87 38 90 38 3 1 76 -70 163 -157z m1082 113 c50 -20 93 -40
97 -44 4 -4 -91 -105 -212 -226 -209 -209 -219 -218 -229 -194 -5 13 -25 62
-46 108 l-36 85 158 158 c87 87 162 156 168 154 5 -2 51 -20 100 -41z m-413
-378 c21 -50 40 -100 44 -109 6 -17 -13 -18 -306 -18 -293 0 -312 1 -306 18 4
9 23 59 44 109 l37 93 225 0 225 0 37 -93z"/>
</g>
</svg>
